<svg xmlns="http://www.w3.org/2000/svg" width="244" height="239"><path fill="#FDFDFD" d="M0 0h244v239H0z"/><path fill="#E3A028" d="M89 52c5.512-.076 5.512-.076 8.187-.022 4.07.08 7.98-.08 12.028-.529 5.49-.43 10.672-.771 15.785 1.551 5.49 5.325 8.572 12.493 11.735 19.35 1.59 3.332 3.453 6.278 5.515 9.338 1.683 2.545 2.779 4.398 3.75 7.312q-7.365.221-14.734.33-2.505.044-5.01.123c-2.404.073-4.805.106-7.21.133l-2.257.094c-2.122.001-2.122.001-5.789-.68-2.503-3.037-2.503-3.037-4-6-5.355 6.385-9.696 13.314-13.656 20.625-1.982 3.503-4.19 6.851-6.403 10.21-1.68 2.739-3.21 5.495-4.726 8.325-3.144 5.812-6.626 11.358-10.215 16.903-4.052 6.286-8.037 12.592-11.836 19.036C59 160 59 160 58 161c-2.594.089-5.16.115-7.754.098l-2.35-.005c-2.486-.005-4.972-.018-7.459-.03l-5.044-.014Q29.197 161.032 23 161a746 746 0 0 1 1.863-3.828l1.048-2.153c1.399-2.594 3.245-4.73 5.089-7.019.778-2.182.778-2.182 1-4h2l.875-2.75c.89-2.572 1.84-4.863 3.125-7.25h2l1-4h2l.364-1.742c2.132-7.568 7.626-14.582 11.761-21.196l5.194-8.355C67.429 87.257 74.404 75.755 81 64h2l.75-2.062C85.242 58.43 87.068 55.284 89 52"/><path fill="#010101" d="M21 165h204c-1.403 6.314-2.677 11.191-5 17a9900 9900 0 0 1-74.18-.202q-7.044-.043-14.09-.084l-26.483-.16-30.234-.18Q44.006 181.188 13 181c2.215-5.536 5.145-10.765 8-16"/><path fill="#060606" d="m111.46 96.493 3.794.183 3.826.142L122 97l1.654 17.023.562 5.781 1.06 10.925c.468 4.789.973 9.57 1.53 14.349.401 3.975.25 7.932.194 11.922h-14c-1.158-3.473-1.069-6.36-1-10-11.93-.966-11.93-.966-22.441 3.07-1.539 2.721-1.539 2.721-2.559 6.93H72c5.68-10.632 11.86-20.918 18.187-31.172l1.676-2.714q1.695-2.73 3.41-5.448c2.802-4.447 5.452-8.84 7.633-13.628 3.82-6.851 3.82-6.851 8.553-7.545"/><path fill="#070707" d="M225.195 99.734C227 101 227 101 230 105l-9 11c-2.003-1.002-4.009-2.005-5.953-3.117-2.42-1.043-4.175-1.085-6.797-1.008l-2.422.055L204 112l-1 5c.797.315 1.593.63 2.414.953 13.988 5.65 13.988 5.65 17.586 11.047 1.073 6.915-.091 13.194-4 19-5.29 5.832-10.119 9.473-18.113 10.336-9.766.12-16.543-1.702-23.887-8.336 1.453-5.327 5.081-8.364 9-12 2 .987 3.98 1.988 5.93 3.07 4.156 2.254 7.22 3.607 12.07 2.93 3.224-1.67 3.224-1.67 3.688-4.625L208 137l-1.906-.516C190.67 132.118 190.67 132.118 187 126c-1.522-7.278.324-13.296 4.078-19.543 8.333-10.653 22.257-12.362 34.117-6.723"/><path fill="#050505" d="M147 98h40l-3 14h-27l-1 8-1 2h23c-1 8-1 8-3 14h-24l-2 11c-.884 3.386-1.936 6.663-3 10h-13c.564-5.919 1.447-11.509 2.926-17.262l.572-2.282q.598-2.374 1.203-4.747.906-3.558 1.797-7.121l1.178-4.662.524-2.082c1.79-6.996 3.813-13.89 5.8-20.844"/><path fill="#090909" d="M39 51h27c1.636 20.696 1.451 34.66-12.121 51.564-3.87 5.019-7.08 10.496-10.385 15.897A345 345 0 0 1 40 124h-1z"/><path fill="#F5F0E2" d="M106 82a141 141 0 0 1 5 5v2l34-1 1-2 2 2-1 3-3.257.028c-3.987.04-7.973.106-11.96.18q-2.587.042-5.176.063c-2.48.021-4.96.068-7.439.12l-2.34.003c-4.293.102-4.293.102-7.776 2.394-.998 2.1-1.533 3.957-2.052 6.212a76 76 0 0 1-2.441 4.309l-1.507 2.493-1.615 2.635-1.651 2.724a2581 2581 0 0 1-10.84 17.671c-6.441 10.465-6.441 10.465-12.583 21.106L75 153h-2c-.597-2.763-1-5.16-1-8l-2 3h-2l-.312 1.938L67 152l-3 1v2l-2-1c3.829-6.883 7.69-13.67 12.125-20.187 3.037-4.468 5.66-9.006 8.188-13.774 3.237-5.831 6.878-11.42 10.44-17.057 2.525-4.015 4.987-8.067 7.458-12.115 1.872-3 3.814-5.935 5.789-8.867"/><path fill="#C48525" d="M124.997 55.243c3.46 1.307 4.578 4.813 6.19 7.945a224 224 0 0 0 10.982 18.381c1.637 2.48 2.885 4.593 3.831 7.431q-7.394.185-14.789.275-2.516.038-5.031.102c-2.41.06-4.82.09-7.23.111l-2.274.078c-2.123.002-2.123.002-5.676-.566-2.433-2.855-3-4.248-3-8l-2-1h2l2-6h2l.75-2c1.568-3.764 3.395-7.371 5.25-11h2l.375-2.437L121 56c2-1 2-1 3.997-.757"/><path fill="#F8F9F7" d="M93 106h1l.438 2.75c.426 2.465.913 4.838 1.562 7.25h-2l-.145 2.887c-.766 5.325-3.717 9.45-6.543 13.926l-1.568 2.54a820 820 0 0 1-3.148 5.06c-2.183 3.54-4.25 7.145-6.31 10.758L75 153h-2c-.597-2.763-1-5.16-1-8l-2 3h-2l-.312 1.938L67 152l-3 1v2l-2-1c13.954-25.087 13.954-25.087 21-30h2l.375-2.375C86 119 86 119 88 117q1.546-3.48 3-7c.653-1.34 1.312-2.677 2-4"/><path fill="#F7F2DC" d="M66 52h1l1 31 2-3h2a52.6 52.6 0 0 1-4.793 9.695l-1.65 2.653-1.745 2.777-1.781 2.857c-3.48 5.572-6.995 11.12-10.535 16.655-4.883 7.368-4.883 7.368-8.496 15.363h-2l-1 4h-2l-.312 1.625c-.869 3-2.244 5.613-3.688 8.375h-2l-1 5c-1.245-2.49-.777-3.41 0-6h2l.438-2.375C34 138 34 138 35 136h2l.313-2.187c.755-3.09 1.842-5.23 3.687-7.813h2v-4l-2-1c7.756-12.827 15.684-25.527 24-38 .37-3.298.37-3.298.414-7.074l.059-2.072c.06-2.18.106-4.36.152-6.541l.117-4.44Q65.885 57.437 66 52"/><path fill="#D0AA57" d="M58 103c.613 1.82.613 1.82 1 4a150 150 0 0 1-4 6l-1 3.313L53 119c-2.125.875-2.125.875-4 1v5h-3l-.75 2.625c-1.089 2.94-2.31 4.888-4.11 7.398-2.175 3.77-3.454 7.957-4.894 12.051-1.15 2.701-1.923 4.182-4.246 5.926h-2l-.937 1.875L27 159l2.114-.508c3.123-.532 5.898-.511 9.062-.37l3.506.146 3.63.17 3.69.158q4.5.195 8.998.404l-.152-2.332c.222-3.89 2.348-5.138 5.152-7.668l1-2 2 1q-1.151 2.128-2.312 4.25l-1.301 2.39L61 157l-1.09 2.123c-2.437 2.395-4.257 2.332-7.586 2.33l-2.273-.062-2.341-.018a640 640 0 0 1-7.398-.123q-2.508-.03-5.017-.055A1326 1326 0 0 1 23 161a746 746 0 0 1 1.863-3.828l1.048-2.153c1.399-2.594 3.245-4.73 5.089-7.019.778-2.182.778-2.182 1-4h2l.875-2.75c.89-2.572 1.84-4.863 3.125-7.25h2l1-4h2l.375-1.758C45.895 119.2 52.905 110.802 58 103"/><path fill="#1D1E1F" d="M21 165h204v1l-3.128.013q-37.642.155-75.286.326-18.204.085-36.408.158-15.862.065-31.726.14-8.403.04-16.805.072-7.904.03-15.808.071-2.904.015-5.81.023-3.959.014-7.917.039l-2.335.003c-3.394.026-6.532.09-9.777 1.155z"/><path fill="#F1F4F2" d="M79 127c1.6 3.2.032 5.723-1 9h4c.738 1.578.738 1.578 1 4a62 62 0 0 1-3.812 6.75l-1.12 1.824c-.958 1.518-2.007 2.978-3.068 4.426h-2c-.597-2.763-1-5.16-1-8l-2 3h-2l-.312 1.938L67 152l-3 1v2l-2-1c12.533-22.533 12.533-22.533 17-27"/><path fill="#F4F4F4" d="M208.188 110.688c4.673.022 7.08 1.468 10.812 4.312h3l-1 3h-2l-2 5c-10.558-2.89-10.558-2.89-15-6 1.104-6.15 1.104-6.15 6.188-6.312"/><path fill="#D0A75D" d="M89 52c12.03-.166 23.99.348 36 1l-1 2-34-1v6l-3 2v4h-2v2l-3 1-2 3h-2c1.875-5.75 1.875-5.75 3-8h2l.75-2.062C85.242 58.43 87.068 55.284 89 52"/><path fill="#FCF3DE" d="M96 49v2q4.594-.212 9.188-.437l2.619-.12c4.173-.208 8.1-.561 12.193-1.443 2.313.438 2.313.438 4 1v2h2l-1 3v-2l-1.69.016c-11.488.093-22.859-.03-34.31-1.016l-.867 2.262C86.703 57.72 84.896 60.776 83 64c-1.246-3.737-.696-4.527 1-8 1.75-3.25 1.75-3.25 4-6 2.822-.79 5.096-1 8-1"/><path fill="#F0F0F0" d="M109 118h1l1 16h-11q1.399-2.879 2.813-5.75l1.582-3.234c1.37-2.574 2.725-4.796 4.605-7.016"/><path fill="#F6EBC7" d="M29 149c0 3 0 3-5 11h35v2H23v3l-4 2c-.625-1.875-.625-1.875-1-4l2-2h1l2-8 4-1v-2z"/><path fill="#FCF1D3" d="M79 127c1 2 1 2 .063 5.125L78 135h-2l-.25 2.875L75 141a90 90 0 0 1-4 2c-.812 2.555-.812 2.555-1 5h-2l-.312 1.938L67 152l-3 1v2l-2-1c12.533-22.533 12.533-22.533 17-27"/><path fill="#D2AB4D" d="M85 112h2c-4.835 12.554-12.775 23.732-20 35-.98-3.076-1.15-3.686.313-6.75L69 138h2l.375-2.312C72 133 72 133 74 130h2l1-5h2l1-6h2l.938-2.937C84 113 84 113 85 112"/><path fill="#CFCCC1" d="M66 52h1l1 31 2-3h2c-1.642 4.776-4.265 8.794-7 13l-4-4 1.962-2.54c2.369-3.569 2.576-6.53 2.647-10.827l.05-2.06c.049-2.15.07-4.298.091-6.448q.042-2.199.09-4.398c.073-3.576.123-7.151.16-10.727"/><path fill="#F7EED0" d="m43 117 2 4 2-2c0 3.196-.547 4.417-2 7.188l-1.125 2.167L43 130h-2l-1 4h-2l-.312 1.625c-.869 3-2.244 5.613-3.688 8.375h-2l-1 5c-1.245-2.49-.777-3.41 0-6h2l.438-2.375C34 138 34 138 35 136h2l.313-2.187c.755-3.09 1.842-5.23 3.687-7.813h2v-4l-2-1z"/><path fill="#F9ECD0" d="m94 101 1 2c-1.966 5.175-4.49 10.071-7 15l-.996 2.098c-1.297 2.457-2.921 4.08-5.004 5.902h-2c1.482-5.366 4.015-9.561 7-14.187l1.367-2.155A479 479 0 0 1 94 101"/><path fill="#D6AF5F" d="M58 103c.613 1.82.613 1.82 1 4a150 150 0 0 1-4 6l-1 3.313L53 119c-2.125.875-2.125.875-4 1v5h-3l-.812 2.938L44 131l-3 1v-2h2l.375-1.758C45.895 119.2 52.905 110.802 58 103"/><path fill="#D9A136" d="m64 147 2 1a2498 2498 0 0 1-2.375 4.313l-1.336 2.425C61.265 156.535 60.147 158.28 59 160a57 57 0 0 1-7.414.293l-2.211-.013a766 766 0 0 1-7-.093q-2.37-.022-4.742-.04Q31.816 160.093 26 160l1-3v2l2.114-.508c3.123-.532 5.898-.511 9.062-.37l3.506.146 3.63.17 3.69.158q4.5.195 8.998.404l-.152-2.332c.222-3.89 2.348-5.138 5.152-7.668z"/><path fill="#FEFBE3" d="M61 156h1v6c-3.219 1.61-6.748 1.242-10.29 1.316l-2.48.063q-3.927.097-7.855.184l-5.32.13q-6.527.161-13.055.307v-2h36l1-5z"/><path fill="#D6AF57" d="M71 82c1 3 1 3 .363 4.867-1.692 3.235-3.288 6.042-5.613 8.883-2.16 2.301-2.16 2.301-1.75 6.25l-5 1c1.675-4.88 4.368-8.992 7.125-13.312l1.418-2.245Q69.267 84.72 71 82"/><path fill="#F8EBC4" d="m106 82 5 5-1 2-3-2-1.39 2.117-1.86 2.758-1.828 2.742C100.03 96.963 98.772 97.933 96 99c1.764-3.751 3.939-7.235 6.125-10.75l1.129-1.824Q104.626 84.212 106 82"/><path fill="#F1F0F0" d="m95 105 1.813.938c2.277 1.164 2.277 1.164 5.187 2.062l-7 12-1-4h2l-2-3c-.187-3.625-.187-3.625 0-7z"/><path fill="#FDF7E5" d="M74 64h3v3l3 1a1735 1735 0 0 1-3.437 6l-1.934 3.375L73 80h-1c-.195-6.055-.195-6.055 0-8l2-2c.167-3.083.167-3.083 0-6"/><path fill="#DBA947" d="m42 131 1 2-1.344 1.59c-2.615 3.806-3.841 8.084-5.375 12.414-1.166 2.728-2.02 4.15-4.281 5.996l-2-1 2.438-3.062C35.03 145.34 35.582 142.434 36 138c1.063-2.437 1.063-2.437 2-4h2v-2z"/><path fill="#D8A637" d="M88 58h2c-1 3-1 3-3 4v4h-2v2l-3 1-2 3h-2c1.875-5.75 1.875-5.75 3-8h2v-2l5-2z"/><path fill="#110F12" d="M55 96c1 3 1 3 .004 5.043l-1.441 2.144-1.434 2.168L51 107l-5-1 2-1 .375-2.875C49 99 49 99 50.938 97.125 53 96 53 96 55 96"/><path fill="#F4F5F2" d="m49 109 2 2c-.398 1.464-.819 2.92-1.25 4.375l-.703 2.46c-1.268 2.623-2.371 3.159-5.047 4.165l-1-2c1.541-4.161 3.126-7.579 6-11"/><path fill="#BF944E" d="M125 55c3 2.63 4.724 5.742 6.688 9.188l1.886 3.292L135 70h-3c-1.42-1.993-2.483-4.086-3.621-6.25L127 62h-4l1-2.375c1.119-2.468 1.119-2.468 1-4.625"/><path fill="#F9EFD8" d="m136 72 4 1v2h2l1 5h2v6c-3.741-4.295-6.342-8.999-9-14"/><path fill="#EBEBEB" d="m185 104 6 1-1 6h-6z"/><path fill="#D8B06B" d="M92.574 51.512q2.058.05 4.114.175l2.126.069c1.73.059 3.458.148 5.186.244v1H90v5h-2v2l-4 2a123 123 0 0 1 2-5c.36-.877.722-1.753 1.094-2.656C89 52 89 52 92.574 51.512"/><path fill="#EDEDED" d="M193 136c2.368 1.579 4.067 2.975 6 5l-2 3c-3.375-1.186-5.647-2.276-8-5l4-1z"/><path fill="#D0AA4F" d="m100 89 2 1-2.187 2.938C96.833 97.09 94.4 101.494 92 106l-1-3a119 119 0 0 1 4-7c.68-1.326 1.355-2.656 2-4h2z"/><path fill="#F4E6BA" d="m94 101 1 2c-1.385 3.628-2.844 6.765-5 10h-2v3h-2c1.373-3.699 3.064-6.951 5.125-10.312l1.633-2.676z"/><path fill="#FBFBEA" d="M101 95c.75 1.75.75 1.75 1 4-1.75 2.25-1.75 2.25-4 4h-3c.349-3.255 1.021-4.019 3.563-6.25z"/><path fill="#D8D8D8" d="m205 136 3 1c.25 2.313.25 2.313 0 5-2.379 2.653-3.671 2.981-7.25 3.188L198 145l1.75-.75c2.55-1.417 4.268-3.126 6.25-5.25z"/><path fill="#131016" d="m96 117 2 2c-2.625 6.75-2.625 6.75-6 9-1-3-1-3-.004-5.043l1.442-2.144 1.433-2.168z"/><path fill="#FBF1D6" d="M126 55h3v4h3l2 7-2 1z"/><path fill="#BB944C" d="M135 72c3.255 3.023 5.618 6.257 8 10l-1 2c-2.375-.937-2.375-.937-5-3-1.04-2.948-1.566-5.91-2-9"/><path fill="#D6AE52" d="M77 72h1c.125 5.75.125 5.75-1 8h-3v2h-2c1.15-3.892 2.292-6.939 5-10"/><path fill="#111112" d="m19 168 3 1-1 6-5 1c1.875-5.75 1.875-5.75 3-8"/><path fill="#F6F6F4" d="M56 98h2v6l-4 2c-.125-2.875-.125-2.875 0-6z"/><path fill="#D2AC59" d="m64 147 2 1a617 617 0 0 1-2.375 4.438l-1.336 2.496C61 157 61 157 59 158c.531-4.515 2.366-7.347 5-11"/><path fill="#FAF0CA" d="M79 127c1 2 1 2 .313 5.063C78 135 78 135 75.875 135.875L74 136c1.25-3.46 2.675-6.147 5-9"/><path fill="#D4A741" d="m103 80 5 1c-1.442 2.884-3.706 4.765-6 7-.125-5.75-.125-5.75 1-8"/><path fill="#EEF5EB" d="M90 116c1.206 2.332 2.165 4.496 3 7l-1 2h-2l-2-5h2z"/><path fill="#FDEDCD" d="M87 54c0 4.246-1.818 6.385-4 10-1-3-1-3-.25-5.562C84 56 84 56 87 54"/><path fill="#FDF3D8" d="M61 156h1v6l-6 1 3-1 .438-2.437C60 157 60 157 61 156"/><path fill="#BB8836" d="m139 80 1 3c2.015.733 2.015.733 4 1v4c-1.937-.625-1.937-.625-4-2-.75-3.125-.75-3.125-1-6"/><path fill="#262626" d="m197 101 2 2-8 6c1.27-3.914 2.512-5.79 6-8"/><path fill="#E6A314" d="m88 99 3 1-1 5h-3a100 100 0 0 1 0-5z"/><path fill="#DDB968" d="M81 64h2c-.812 3.438-.812 3.438-2 7l-3 1c1.875-5.75 1.875-5.75 3-8"/><path fill="#141415" d="M76 150h2l-1 4h-2l-1 3-2-1a125 125 0 0 1 4-6"/><path fill="#D2A84D" d="M51 114h3l-1 5-4 1z"/><path fill="#E6E7E0" d="m59 92 2 4-3 3-2-2z"/><path fill="#BD891B" d="m125 55 1 5-1-2h-2v2h-2v-4c2-1 2-1 4-1"/></svg>