<svg version="1.1" id="Layer_1" xmlns="http://www.w3.org/2000/svg" xmlns:xlink="http://www.w3.org/1999/xlink" x="0px" y="0px"
	 width="100%" viewBox="0 0 1024 1024" enable-background="new 0 0 1024 1024" xml:space="preserve">
<path fill="#FFFFFF" opacity="1.000000" stroke="none" 
	d="
M654.000000,1025.000000 
	C436.000000,1025.000000 218.500000,1025.000000 1.000000,1025.000000 
	C1.000000,683.666687 1.000000,342.333344 1.000000,1.000000 
	C342.333344,1.000000 683.666687,1.000000 1025.000000,1.000000 
	C1025.000000,342.333344 1025.000000,683.666687 1025.000000,1025.000000 
	C901.500000,1025.000000 778.000000,1025.000000 654.000000,1025.000000 
M371.915619,236.929977 
	C371.915619,236.929977 371.866394,236.821579 371.309021,237.127930 
	C370.815430,238.053329 370.321838,238.978729 369.915283,239.943115 
	C369.915283,239.943115 369.898193,239.849274 369.353699,240.173447 
	C368.879639,241.105042 368.405548,242.036652 368.000183,242.983444 
	C368.000183,242.983444 367.963043,242.923691 367.502594,243.314255 
	C367.258057,243.859802 367.013519,244.405350 366.201050,245.297852 
	C293.602081,362.538300 220.992279,479.772034 148.413712,597.025085 
	C134.604279,619.334717 120.918602,641.720947 106.787308,664.614990 
	C106.392830,665.233459 105.998360,665.851929 105.328186,666.902710 
	C145.634216,666.902710 185.293335,666.902710 225.717407,667.064453 
	C226.493271,667.009155 227.269135,666.953796 228.971939,666.993713 
	C236.952621,666.934143 244.933304,666.874512 253.583298,666.672852 
	C317.414490,562.732544 381.245667,458.792175 445.644928,355.240967 
	C452.072540,365.498749 458.500153,375.756531 465.335022,386.799622 
	C467.485992,386.887115 469.636932,387.050293 471.787933,387.050873 
	C516.165405,387.062927 560.542847,387.056549 604.920288,387.053802 
	C606.510742,387.053680 608.101196,387.053741 610.472412,387.053741 
	C609.391113,385.563110 608.761047,384.694519 608.108765,383.928467 
	C608.108765,383.928467 608.212097,383.910461 608.090698,383.452728 
	C608.090698,383.452728 607.839050,383.051544 607.718323,382.377289 
	C597.473145,365.477448 587.250183,348.564087 576.978027,331.680664 
	C557.557922,299.761719 538.109558,267.859985 518.186340,235.306381 
	C513.385864,235.130692 508.586670,234.863983 503.784607,234.793610 
	C461.810913,234.178589 419.836975,233.575928 377.861664,233.092880 
	C376.211914,233.073898 374.547882,234.296555 372.970673,234.975311 
	C372.970673,234.975311 372.941376,234.893051 372.446320,235.252838 
	C372.230133,235.817444 372.013947,236.382050 371.915619,236.929977 
M497.500183,687.281128 
	C364.682312,687.275818 231.864410,687.288025 99.046608,687.178894 
	C95.132172,687.175659 92.783981,688.216675 90.810478,691.696289 
	C85.192123,701.602051 79.183586,711.286133 73.354248,721.072754 
	C66.961784,731.804749 60.597889,742.553894 53.944496,753.762268 
	C56.519024,753.762268 58.448006,753.762329 60.376991,753.762268 
	C283.184357,753.758301 505.991760,753.753357 728.799133,753.751160 
	C793.624878,753.750488 858.450745,753.727905 923.276245,753.849365 
	C926.512939,753.855408 927.873718,752.814697 928.866577,749.900818 
	C932.843323,738.230103 937.013672,726.625061 941.152771,715.010071 
	C944.419556,705.842957 947.745544,696.697021 951.139587,687.279907 
	C799.788025,687.279907 649.144104,687.279907 497.500183,687.281128 
M409.500610,615.000183 
	C430.264435,615.000183 451.028259,615.000183 471.768494,615.000183 
	C472.952881,629.588867 474.091522,643.613892 475.231903,657.660461 
	C496.904938,657.660461 518.411682,657.660461 539.923645,657.660461 
	C530.353210,578.894897 520.825928,500.484039 511.283752,421.951050 
	C493.223083,421.951050 475.902557,422.068237 458.586029,421.855804 
	C454.964203,421.811371 453.056305,423.007629 451.134216,426.016937 
	C407.010162,495.100952 362.766327,564.108459 318.545776,633.130798 
	C313.335876,641.262695 308.132111,649.398560 302.615753,658.016479 
	C322.221558,658.016479 341.020935,658.068237 359.818634,657.913269 
	C361.241608,657.901550 363.181519,656.772217 363.983368,655.565735 
	C369.375763,647.452759 374.523407,639.177185 379.754364,630.956848 
	C383.038177,625.796326 385.219177,618.593384 389.921234,616.044189 
	C394.853455,613.370178 402.206177,615.160767 409.500610,615.000183 
M939.204529,576.772339 
	C939.581787,574.322876 939.970947,571.875122 940.334229,569.423584 
	C942.790588,552.850037 937.467651,539.332214 924.117310,529.211304 
	C912.633606,520.505432 898.960571,516.556213 885.575989,511.981964 
	C876.123047,508.751343 866.587891,505.623596 857.475647,501.579620 
	C851.000977,498.706146 849.464966,493.106598 852.140991,486.523773 
	C854.806946,479.965790 859.779785,475.761505 866.602173,474.059601 
	C875.124329,471.933685 883.677002,472.332428 892.150635,474.577728 
	C905.551819,478.128876 917.372742,484.675232 928.174377,494.088684 
	C941.640076,478.994171 954.896851,464.133881 968.099854,449.333862 
	C960.058350,438.609070 947.699585,429.294586 933.868469,423.984589 
	C910.817688,415.135071 887.278870,415.234802 863.526794,420.712341 
	C841.802246,425.722290 823.705811,436.569153 810.136292,454.415924 
	C799.381775,468.560425 793.212280,484.681305 789.515259,502.013916 
	C784.606812,525.025879 791.748230,543.541687 812.703491,554.300842 
	C825.012390,560.620605 838.713379,564.237671 851.809692,569.011536 
	C859.645752,571.867920 867.676147,574.255432 875.322083,577.544250 
	C879.577393,579.374573 880.614258,583.531128 879.519043,588.161438 
	C877.456543,596.881042 871.877502,602.303284 863.626953,604.963623 
	C845.349792,610.857178 828.202148,606.784973 812.295837,597.496582 
	C803.968079,592.633667 796.701111,585.954224 788.610840,579.834717 
	C774.483276,594.308472 759.729004,609.424316 744.426208,625.102051 
	C748.509644,628.974060 752.567566,633.402466 757.200562,637.112915 
	C775.543091,651.803101 796.655151,659.376038 820.020752,661.176392 
	C856.191467,663.963257 888.448181,655.537354 914.053345,628.377441 
	C927.523743,614.089233 936.087280,597.190186 939.204529,576.772339 
M570.004517,616.521790 
	C566.311584,630.240112 562.618652,643.958435 558.880859,657.843384 
	C578.213379,657.843384 597.005737,657.843384 615.746826,657.843384 
	C623.952087,628.767822 632.106262,599.873535 640.282349,570.901306 
	C673.426880,570.901306 706.057922,570.901306 738.665466,570.901306 
	C743.583679,553.274658 748.440063,535.869629 753.417664,518.030273 
	C720.372681,518.030273 687.772705,518.030273 654.629150,518.030273 
	C658.290100,505.124725 661.820374,492.679779 665.415405,480.006775 
	C667.540833,480.006775 669.526733,480.006439 671.512573,480.006866 
	C704.334106,480.013794 737.155640,479.989899 769.976990,480.078644 
	C773.039795,480.086945 774.512573,479.618378 775.255066,476.046387 
	C776.892700,468.167114 779.422852,460.474823 781.546326,452.694672 
	C784.288391,442.648346 786.989014,432.590668 789.739929,422.417908 
	C733.500977,422.417908 677.903564,422.417908 622.123962,422.417908 
	C613.379333,455.011627 604.691223,487.452942 595.969971,519.885315 
	C587.379456,551.831482 578.755310,583.768616 570.004517,616.521790 
M164.998795,350.500000 
	C164.998795,411.187744 164.998795,471.875488 164.998795,533.765564 
	C165.958832,532.228760 166.267426,531.736755 166.574097,531.243591 
	C201.991699,474.278839 237.431137,417.327637 272.744232,360.298187 
	C274.122345,358.072632 274.918762,355.100159 274.928162,352.471893 
	C275.066803,313.661316 275.028656,274.850128 275.015991,236.039062 
	C275.015594,234.773544 274.841553,233.508072 274.756226,232.348267 
	C238.020004,232.348267 201.631287,232.348267 164.998825,232.348267 
	C164.998825,271.588928 164.998825,310.544464 164.998795,350.500000 
z"/>
<path fill="#EDA82C" opacity="1.000000" stroke="none" 
	d="
M107.175842,664.071838 
	C120.918602,641.720947 134.604279,619.334717 148.413712,597.025085 
	C220.992279,479.772034 293.602081,362.538300 366.779602,244.995697 
	C367.559784,244.103592 367.761414,243.513641 367.963043,242.923691 
	C367.963043,242.923691 368.000183,242.983444 368.328003,242.939636 
	C369.069977,241.880310 369.484100,240.864792 369.898193,239.849274 
	C369.898193,239.849274 369.915283,239.943115 370.245605,239.913605 
	C371.006104,238.863251 371.436249,237.842407 371.866394,236.821579 
	C371.866394,236.821579 371.915619,236.929977 372.153870,236.807465 
	C372.575226,236.087631 372.758301,235.490341 372.941345,234.893051 
	C372.941376,234.893051 372.970673,234.975311 373.407135,234.986084 
	C421.558685,235.347794 469.273743,235.698730 516.956665,236.399017 
	C497.664429,267.944824 478.352905,299.109772 459.179657,330.359528 
	C454.254852,338.386261 449.765991,346.680511 445.076843,354.851837 
	C381.245667,458.792175 317.414490,562.732544 252.942352,666.474487 
	C244.215942,666.483582 236.130463,666.690979 228.044998,666.898438 
	C227.269135,666.953796 226.493271,667.009155 225.038528,666.696533 
	C222.542679,666.217834 220.725739,666.011292 218.908722,666.010315 
	C183.751663,665.991699 148.594513,666.029968 113.437820,665.915161 
	C111.348511,665.908386 109.263077,664.713745 107.175842,664.071838 
z"/>
<path fill="#030303" opacity="1.000000" stroke="none" 
	d="
M498.000183,687.280518 
	C649.144104,687.279907 799.788025,687.279907 951.139587,687.279907 
	C947.745544,696.697021 944.419556,705.842957 941.152771,715.010071 
	C937.013672,726.625061 932.843323,738.230103 928.866577,749.900818 
	C927.873718,752.814697 926.512939,753.855408 923.276245,753.849365 
	C858.450745,753.727905 793.624878,753.750488 728.799133,753.751160 
	C505.991760,753.753357 283.184357,753.758301 60.376991,753.762268 
	C58.448006,753.762329 56.519024,753.762268 53.944496,753.762268 
	C60.597889,742.553894 66.961784,731.804749 73.354248,721.072754 
	C79.183586,711.286133 85.192123,701.602051 90.810478,691.696289 
	C92.783981,688.216675 95.132172,687.175659 99.046608,687.178894 
	C231.864410,687.288025 364.682312,687.275818 498.000183,687.280518 
z"/>
<path fill="#010101" opacity="1.000000" stroke="none" 
	d="
M409.000824,615.000122 
	C402.206177,615.160767 394.853455,613.370178 389.921234,616.044189 
	C385.219177,618.593384 383.038177,625.796326 379.754364,630.956848 
	C374.523407,639.177185 369.375763,647.452759 363.983368,655.565735 
	C363.181519,656.772217 361.241608,657.901550 359.818634,657.913269 
	C341.020935,658.068237 322.221558,658.016479 302.615753,658.016479 
	C308.132111,649.398560 313.335876,641.262695 318.545776,633.130798 
	C362.766327,564.108459 407.010162,495.100952 451.134216,426.016937 
	C453.056305,423.007629 454.964203,421.811371 458.586029,421.855804 
	C475.902557,422.068237 493.223083,421.951050 511.283752,421.951050 
	C520.825928,500.484039 530.353210,578.894897 539.923645,657.660461 
	C518.411682,657.660461 496.904938,657.660461 475.231903,657.660461 
	C474.091522,643.613892 472.952881,629.588867 471.768494,615.000183 
	C451.028259,615.000183 430.264435,615.000183 409.000824,615.000122 
M438.502289,564.002747 
	C448.287903,564.002747 458.073486,564.002747 467.880005,564.002747 
	C466.243622,542.124023 464.644226,520.739868 462.963989,498.274628 
	C448.745544,520.675171 435.187897,542.034668 421.244141,564.002502 
	C427.249146,564.002502 432.376678,564.002502 438.502289,564.002747 
z"/>
<path fill="#010101" opacity="1.000000" stroke="none" 
	d="
M939.134399,577.203125 
	C936.087280,597.190186 927.523743,614.089233 914.053345,628.377441 
	C888.448181,655.537354 856.191467,663.963257 820.020752,661.176392 
	C796.655151,659.376038 775.543091,651.803101 757.200562,637.112915 
	C752.567566,633.402466 748.509644,628.974060 744.426208,625.102051 
	C759.729004,609.424316 774.483276,594.308472 788.610840,579.834717 
	C796.701111,585.954224 803.968079,592.633667 812.295837,597.496582 
	C828.202148,606.784973 845.349792,610.857178 863.626953,604.963623 
	C871.877502,602.303284 877.456543,596.881042 879.519043,588.161438 
	C880.614258,583.531128 879.577393,579.374573 875.322083,577.544250 
	C867.676147,574.255432 859.645752,571.867920 851.809692,569.011536 
	C838.713379,564.237671 825.012390,560.620605 812.703491,554.300842 
	C791.748230,543.541687 784.606812,525.025879 789.515259,502.013916 
	C793.212280,484.681305 799.381775,468.560425 810.136292,454.415924 
	C823.705811,436.569153 841.802246,425.722290 863.526794,420.712341 
	C887.278870,415.234802 910.817688,415.135071 933.868469,423.984589 
	C947.699585,429.294586 960.058350,438.609070 968.099854,449.333862 
	C954.896851,464.133881 941.640076,478.994171 928.174377,494.088684 
	C917.372742,484.675232 905.551819,478.128876 892.150635,474.577728 
	C883.677002,472.332428 875.124329,471.933685 866.602173,474.059601 
	C859.779785,475.761505 854.806946,479.965790 852.140991,486.523773 
	C849.464966,493.106598 851.000977,498.706146 857.475647,501.579620 
	C866.587891,505.623596 876.123047,508.751343 885.575989,511.981964 
	C898.960571,516.556213 912.633606,520.505432 924.117310,529.211304 
	C937.467651,539.332214 942.790588,552.850037 940.334229,569.423584 
	C939.970947,571.875122 939.581787,574.322876 939.134399,577.203125 
z"/>
<path fill="#010101" opacity="1.000000" stroke="none" 
	d="
M570.075195,616.115723 
	C578.755310,583.768616 587.379456,551.831482 595.969971,519.885315 
	C604.691223,487.452942 613.379333,455.011627 622.123962,422.417908 
	C677.903564,422.417908 733.500977,422.417908 789.739929,422.417908 
	C786.989014,432.590668 784.288391,442.648346 781.546326,452.694672 
	C779.422852,460.474823 776.892700,468.167114 775.255066,476.046387 
	C774.512573,479.618378 773.039795,480.086945 769.976990,480.078644 
	C737.155640,479.989899 704.334106,480.013794 671.512573,480.006866 
	C669.526733,480.006439 667.540833,480.006775 665.415405,480.006775 
	C661.820374,492.679779 658.290100,505.124725 654.629150,518.030273 
	C687.772705,518.030273 720.372681,518.030273 753.417664,518.030273 
	C748.440063,535.869629 743.583679,553.274658 738.665466,570.901306 
	C706.057922,570.901306 673.426880,570.901306 640.282349,570.901306 
	C632.106262,599.873535 623.952087,628.767822 615.746826,657.843384 
	C597.005737,657.843384 578.213379,657.843384 558.880859,657.843384 
	C562.618652,643.958435 566.311584,630.240112 570.075195,616.115723 
z"/>
<path fill="#000000" opacity="1.000000" stroke="none" 
	d="
M164.998810,350.000000 
	C164.998825,310.544464 164.998825,271.588928 164.998825,232.348267 
	C201.631287,232.348267 238.020004,232.348267 274.756226,232.348267 
	C274.841553,233.508072 275.015594,234.773544 275.015991,236.039062 
	C275.028656,274.850128 275.066803,313.661316 274.928162,352.471893 
	C274.918762,355.100159 274.122345,358.072632 272.744232,360.298187 
	C237.431137,417.327637 201.991699,474.278839 166.574097,531.243591 
	C166.267426,531.736755 165.958832,532.228760 164.998795,533.765564 
	C164.998795,471.875488 164.998795,411.187744 164.998810,350.000000 
z"/>
<path fill="#C58320" opacity="1.000000" stroke="none" 
	d="
M445.360901,355.046387 
	C449.765991,346.680511 454.254852,338.386261 459.179657,330.359528 
	C478.352905,299.109772 497.664429,267.944824 517.237549,236.377930 
	C517.924683,235.988708 518.298767,235.969910 518.672913,235.951080 
	C538.109558,267.859985 557.557922,299.761719 576.978027,331.680664 
	C587.250183,348.564087 597.473145,365.477448 607.634399,382.835571 
	C607.771057,383.499390 607.991577,383.704926 608.212097,383.910461 
	C608.212097,383.910461 608.108765,383.928467 608.005066,384.289032 
	C605.938782,385.099335 603.976807,385.938293 602.013428,385.941681 
	C556.318298,386.020660 510.623047,386.009125 464.927795,386.014313 
	C458.500153,375.756531 452.072540,365.498749 445.360901,355.046387 
z"/>
<path fill="#E99B15" opacity="1.000000" stroke="none" 
	d="
M518.429626,235.628738 
	C518.298767,235.969910 517.924683,235.988708 517.269653,236.028595 
	C469.273743,235.698730 421.558685,235.347794 373.367065,234.968765 
	C374.547882,234.296555 376.211914,233.073898 377.861664,233.092880 
	C419.836975,233.575928 461.810913,234.178589 503.784607,234.793610 
	C508.586670,234.863983 513.385864,235.130692 518.429626,235.628738 
z"/>
<path fill="#B76302" opacity="1.000000" stroke="none" 
	d="
M465.131409,386.406982 
	C510.623047,386.009125 556.318298,386.020660 602.013428,385.941681 
	C603.976807,385.938293 605.938782,385.099335 608.016174,384.237793 
	C608.761047,384.694519 609.391113,385.563110 610.472412,387.053741 
	C608.101196,387.053741 606.510742,387.053680 604.920288,387.053802 
	C560.542847,387.056549 516.165405,387.062927 471.787933,387.050873 
	C469.636932,387.050293 467.485992,386.887115 465.131409,386.406982 
z"/>
<path fill="#E89103" opacity="1.000000" stroke="none" 
	d="
M106.981567,664.343384 
	C109.263077,664.713745 111.348511,665.908386 113.437820,665.915161 
	C148.594513,666.029968 183.751663,665.991699 218.908722,666.010315 
	C220.725739,666.011292 222.542679,666.217834 224.656052,666.615723 
	C185.293335,666.902710 145.634216,666.902710 105.328186,666.902710 
	C105.998360,665.851929 106.392830,665.233459 106.981567,664.343384 
z"/>
<path fill="#E89103" opacity="1.000000" stroke="none" 
	d="
M228.508469,666.946045 
	C236.130463,666.690979 244.215942,666.483582 252.607697,666.545532 
	C244.933304,666.874512 236.952621,666.934143 228.508469,666.946045 
z"/>
<path fill="#E99B15" opacity="1.000000" stroke="none" 
	d="
M369.625977,240.011353 
	C369.484100,240.864792 369.069977,241.880310 368.293671,242.932037 
	C368.405548,242.036652 368.879639,241.105042 369.625977,240.011353 
z"/>
<path fill="#E99B15" opacity="1.000000" stroke="none" 
	d="
M371.587708,236.974762 
	C371.436249,237.842407 371.006104,238.863251 370.202087,239.894104 
	C370.321838,238.978729 370.815430,238.053329 371.587708,236.974762 
z"/>
<path fill="#E99B15" opacity="1.000000" stroke="none" 
	d="
M367.732819,243.118973 
	C367.761414,243.513641 367.559784,244.103592 367.063538,244.822205 
	C367.013519,244.405350 367.258057,243.859802 367.732819,243.118973 
z"/>
<path fill="#E99B15" opacity="1.000000" stroke="none" 
	d="
M372.693848,235.072937 
	C372.758301,235.490341 372.575226,236.087631 372.094971,236.815796 
	C372.013947,236.382050 372.230133,235.817444 372.693848,235.072937 
z"/>
<path fill="#B76302" opacity="1.000000" stroke="none" 
	d="
M608.151367,383.681580 
	C607.991577,383.704926 607.771057,383.499390 607.694824,383.172699 
	C607.839050,383.051544 608.090698,383.452728 608.151367,383.681580 
z"/>
<path fill="#FDFDFD" opacity="1.000000" stroke="none" 
	d="
M438.003235,564.002625 
	C432.376678,564.002502 427.249146,564.002502 421.244141,564.002502 
	C435.187897,542.034668 448.745544,520.675171 462.963989,498.274628 
	C464.644226,520.739868 466.243622,542.124023 467.880005,564.002747 
	C458.073486,564.002747 448.287903,564.002747 438.003235,564.002625 
z"/>
</svg>