<?xml version="1.0" encoding="UTF-8"?>
<svg version="1.1" xmlns="http://www.w3.org/2000/svg" width="244" height="239">
<path d="M0 0 C80.52 0 161.04 0 244 0 C244 78.87 244 157.74 244 239 C163.48 239 82.96 239 0 239 C0 160.13 0 81.26 0 0 Z " fill="#FDFDFD" transform="translate(0,0)"/>
<path d="M0 0 C5.51166821 -0.07619818 5.51166821 -0.07619818 8.18701172 -0.02197266 C12.25742401 0.05736352 16.16620884 -0.10142972 20.21484375 -0.55078125 C25.70515839 -0.98115027 30.88666615 -1.32197695 36 1 C41.48916044 6.32515191 44.57176126 13.49315264 47.73535156 20.34912109 C49.32518079 23.68162414 51.18801601 26.62764826 53.25 29.6875 C54.9331655 32.23307951 56.02881727 34.0864518 57 37 C52.088839 37.14847696 47.17898714 37.2572708 42.26611328 37.32958984 C40.59563439 37.35973821 38.9253135 37.40066552 37.25537109 37.45263672 C34.85214295 37.52554846 32.45100836 37.55947188 30.046875 37.5859375 C29.30193787 37.61690521 28.55700073 37.64787292 27.78948975 37.67977905 C25.66699219 37.68115234 25.66699219 37.68115234 22 37 C19.49707031 33.96337891 19.49707031 33.96337891 18 31 C12.64455914 37.38533334 8.30403552 44.31370366 4.34375 51.625 C2.36192758 55.12775591 0.15472218 58.47596392 -2.05859375 61.8359375 C-3.73848707 64.5737918 -5.2688321 67.3304389 -6.78515625 70.16015625 C-9.92881351 75.97227247 -13.41057941 81.51770727 -17 87.0625 C-21.05247474 93.34914476 -25.03719822 99.65534745 -28.8359375 106.09936523 C-30 108 -30 108 -31 109 C-33.59359322 109.08851529 -36.16039691 109.11525945 -38.75390625 109.09765625 C-39.52935287 109.0962413 -40.3047995 109.09482635 -41.10374451 109.09336853 C-43.59003494 109.08775345 -46.0762366 109.07519846 -48.5625 109.0625 C-50.24413933 109.05748694 -51.92578006 109.0529237 -53.60742188 109.04882812 C-57.73831566 109.03777913 -61.86914276 109.02050445 -66 109 C-65.38305468 107.72194748 -64.76095309 106.44638325 -64.13671875 105.171875 C-63.79084717 104.4612793 -63.44497559 103.75068359 -63.08862305 103.01855469 C-61.69015317 100.42547351 -59.84395322 98.28904538 -58 96 C-57.22166466 93.81785432 -57.22166466 93.81785432 -57 92 C-56.34 92 -55.68 92 -55 92 C-54.566875 90.63875 -54.566875 90.63875 -54.125 89.25 C-53.23468224 86.67797092 -52.28505587 84.38653234 -51 82 C-50.34 82 -49.68 82 -49 82 C-48.67 80.68 -48.34 79.36 -48 78 C-47.34 78 -46.68 78 -46 78 C-45.87995605 77.42515869 -45.75991211 76.85031738 -45.63623047 76.25805664 C-43.50381919 68.68987863 -38.0100293 61.67618152 -33.875 55.0625 C-32.72229929 53.20855523 -31.56996181 51.35438457 -30.41796875 49.5 C-29.84481934 48.57832031 -29.27166992 47.65664062 -28.68115234 46.70703125 C-21.57039159 35.25711616 -14.59589388 23.75543264 -8 12 C-7.34 12 -6.68 12 -6 12 C-5.7525 11.319375 -5.505 10.63875 -5.25 9.9375 C-3.75802092 6.43134917 -1.93164489 3.28379632 0 0 Z " fill="#E3A028" transform="translate(89,52)"/>
<path d="M0 0 C67.32 0 134.64 0 204 0 C202.59697129 6.31362918 201.32344464 11.19138841 199 17 C174.27246123 17.03232734 149.54698442 16.95101738 124.81994343 16.79807091 C120.12359894 16.76925909 115.42724708 16.7417007 110.730896 16.71398926 C101.902889 16.66171822 93.07488883 16.60837761 84.24689078 16.5546174 C74.16886459 16.49329959 64.09083108 16.43322791 54.01279688 16.37324238 C33.34185637 16.25017978 12.67092516 16.12561249 -8 16 C-5.78545387 10.46363468 -2.85532244 5.23475781 0 0 Z " fill="#010101" transform="translate(21,165)"/>
<path d="M0 0 C1.25224365 0.06018311 2.5044873 0.12036621 3.79467773 0.18237305 C5.68875366 0.25258667 5.68875366 0.25258667 7.62109375 0.32421875 C9.06633423 0.41449341 9.06633423 0.41449341 10.54077148 0.5065918 C10.71467407 2.29891235 10.71467407 2.29891235 10.89208984 4.12744141 C11.32570769 8.59478761 11.76014699 13.06205363 12.19482422 17.52929688 C12.38222005 19.4563587 12.56939826 21.38344169 12.75634766 23.31054688 C13.02635283 26.09340022 13.29716148 28.87617442 13.56811523 31.65893555 C13.65044907 32.50930893 13.7327829 33.35968231 13.81761169 34.23582458 C14.28471877 39.02422329 14.78937487 43.80580068 15.34667969 48.58459473 C15.74807845 52.5594523 15.59696418 56.51691066 15.54077148 60.5065918 C10.92077148 60.5065918 6.30077148 60.5065918 1.54077148 60.5065918 C0.38302088 57.03333999 0.47210497 54.14591732 0.54077148 50.5065918 C-11.39011031 49.5402649 -11.39011031 49.5402649 -21.90063477 53.5769043 C-23.43923037 56.29781064 -23.43923037 56.29781064 -24.45922852 60.5065918 C-29.40922852 60.5065918 -34.35922852 60.5065918 -39.45922852 60.5065918 C-33.77923086 49.87480132 -27.60008505 39.58816113 -21.27172852 29.3347168 C-20.71888184 28.43889893 -20.16603516 27.54308105 -19.59643555 26.62011719 C-18.46657798 24.79971898 -17.32955753 22.98374637 -16.18530273 21.17236328 C-13.38469501 16.72518149 -10.73392284 12.3317992 -8.5534668 7.54492188 C-4.73404725 0.6932845 -4.73404725 0.6932845 0 0 Z " fill="#060606" transform="translate(111.459228515625,96.493408203125)"/>
<path d="M0 0 C1.8046875 1.265625 1.8046875 1.265625 4.8046875 5.265625 C1.8346875 8.895625 -1.1353125 12.525625 -4.1953125 16.265625 C-6.19878848 15.26388701 -8.20409138 14.26060348 -10.1484375 13.1484375 C-12.56743475 12.10512953 -14.32377734 12.06352102 -16.9453125 12.140625 C-18.14414063 12.16769531 -18.14414063 12.16769531 -19.3671875 12.1953125 C-20.27210938 12.23011719 -20.27210938 12.23011719 -21.1953125 12.265625 C-21.5253125 13.915625 -21.8553125 15.565625 -22.1953125 17.265625 C-21.39867187 17.58015625 -20.60203125 17.8946875 -19.78125 18.21875 C-5.7935367 23.86828871 -5.7935367 23.86828871 -2.1953125 29.265625 C-1.12181969 36.18091588 -2.286328 42.45948003 -6.1953125 48.265625 C-11.48505418 54.09738955 -16.31427456 57.73893835 -24.30859375 58.6015625 C-34.07451337 58.7208045 -40.85097845 56.89921705 -48.1953125 50.265625 C-46.74250185 44.93865261 -43.11419872 41.90159698 -39.1953125 38.265625 C-37.1953244 39.2522858 -35.21608927 40.25410104 -33.265625 41.3359375 C-29.10882102 43.58962641 -26.04582467 44.94244065 -21.1953125 44.265625 C-17.97126272 42.59607681 -17.97126272 42.59607681 -17.5078125 39.640625 C-17.4046875 38.856875 -17.3015625 38.073125 -17.1953125 37.265625 C-17.824375 37.09546875 -18.4534375 36.9253125 -19.1015625 36.75 C-34.52477549 32.38318668 -34.52477549 32.38318668 -38.1953125 26.265625 C-39.71705755 18.98720101 -37.87085197 12.9698264 -34.1171875 6.72265625 C-25.78480482 -3.92992242 -11.86040033 -5.63928468 0 0 Z " fill="#070707" transform="translate(225.1953125,99.734375)"/>
<path d="M0 0 C13.2 0 26.4 0 40 0 C39.01 4.62 38.02 9.24 37 14 C28.09 14 19.18 14 10 14 C9.67 16.64 9.34 19.28 9 22 C8.67 22.66 8.34 23.32 8 24 C15.59 24 23.18 24 31 24 C30 32 30 32 28 38 C20.08 38 12.16 38 4 38 C3.34 41.63 2.68 45.26 2 49 C1.11590167 52.38633995 0.06397831 55.66297712 -1 59 C-5.29 59 -9.58 59 -14 59 C-13.43594703 53.08125251 -12.55276237 47.49125753 -11.07421875 41.73828125 C-10.88535599 40.98516159 -10.69649323 40.23204193 -10.50190735 39.45610046 C-10.10374166 37.87310814 -9.70276262 36.29082098 -9.29907227 34.70922852 C-8.69374862 32.33698809 -8.09707348 29.96270891 -7.50195312 27.58789062 C-7.10988533 26.03372534 -6.71732235 24.47968487 -6.32421875 22.92578125 C-6.15113693 22.23881668 -5.97805511 21.55185211 -5.79972839 20.84407043 C-4.01022814 13.84801859 -1.98670973 6.95348405 0 0 Z " fill="#050505" transform="translate(147,98)"/>
<path d="M0 0 C8.91 0 17.82 0 27 0 C28.63597219 20.69634665 28.45142158 34.66018926 14.87890625 51.5637207 C11.00818412 56.5826833 7.79870623 62.06000343 4.49438477 67.4609375 C3.35073546 69.32046356 2.17875596 71.16252747 1 73 C0.67 73 0.34 73 0 73 C0 48.91 0 24.82 0 0 Z " fill="#090909" transform="translate(39,51)"/>
<path d="M0 0 C1.70884005 1.62339805 3.37446717 3.29319053 5 5 C5 5.66 5 6.32 5 7 C16.22 6.67 27.44 6.34 39 6 C39.33 5.34 39.66 4.68 40 4 C40.99 4.99 40.99 4.99 42 6 C41.67 6.99 41.34 7.98 41 9 C39.92516357 9.0093457 38.85032715 9.01869141 37.74291992 9.02832031 C33.75616972 9.06818414 29.7701942 9.13393173 25.78393555 9.20751953 C24.05845082 9.23575031 22.33283626 9.2569544 20.60717773 9.27099609 C18.12676426 9.29239742 15.6479151 9.33902917 13.16796875 9.390625 C12.01001045 9.39246796 12.01001045 9.39246796 10.82865906 9.39434814 C6.53473622 9.49574853 6.53473622 9.49574853 3.05200195 11.78808594 C2.05359189 13.88731898 1.51939524 15.74492493 1 18 C0.23589127 19.46324165 -0.58356634 20.89825727 -1.44140625 22.30859375 C-2.18716919 23.54283081 -2.18716919 23.54283081 -2.94799805 24.80200195 C-3.48078369 25.67171631 -4.01356934 26.54143066 -4.5625 27.4375 C-5.10753174 28.33621826 -5.65256348 29.23493652 -6.21411133 30.16088867 C-9.8012565 36.06741378 -13.42021469 41.95452606 -17.0546875 47.83203125 C-23.49523059 58.2972221 -23.49523059 58.2972221 -29.63671875 68.9375 C-30.08660156 69.618125 -30.53648438 70.29875 -31 71 C-31.66 71 -32.32 71 -33 71 C-33.59732819 68.23735711 -34 65.83967231 -34 63 C-34.66 63.99 -35.32 64.98 -36 66 C-36.66 66 -37.32 66 -38 66 C-38.103125 66.639375 -38.20625 67.27875 -38.3125 67.9375 C-38.539375 68.618125 -38.76625 69.29875 -39 70 C-40.485 70.495 -40.485 70.495 -42 71 C-42 71.66 -42 72.32 -42 73 C-42.66 72.67 -43.32 72.34 -44 72 C-40.17144747 65.1167513 -36.31074473 58.32910568 -31.875 51.8125 C-28.8381168 47.34545669 -26.21569686 42.80691202 -23.6875 38.0390625 C-20.44970382 32.20803141 -16.80865874 26.61863792 -13.24609375 20.98242188 C-10.7224046 16.96746187 -8.25974111 12.91489502 -5.7890625 8.8671875 C-3.91748052 5.86775262 -1.97500011 2.93204862 0 0 Z " fill="#F5F0E2" transform="translate(106,82)"/>
<path d="M0 0 C3.45904764 1.30678881 4.57739924 4.81264648 6.19018555 7.9440918 C9.58235641 14.27295021 13.19400086 20.34755716 17.17138672 26.32568359 C18.8085095 28.805579 20.05672711 30.91871649 21.00268555 33.7565918 C16.07317274 33.88016231 11.14456023 33.97091357 6.21386719 34.03125 C4.53662414 34.05639972 2.85949074 34.09052439 1.18261719 34.13378906 C-1.2278953 34.1944264 -3.63695998 34.22279463 -6.0480957 34.24487305 C-7.17324333 34.28358269 -7.17324333 34.28358269 -8.32112122 34.32307434 C-10.44384766 34.32421875 -10.44384766 34.32421875 -13.99731445 33.7565918 C-16.43074442 30.90127606 -16.99731445 29.50827061 -16.99731445 25.7565918 C-17.65731445 25.4265918 -18.31731445 25.0965918 -18.99731445 24.7565918 C-18.33731445 24.7565918 -17.67731445 24.7565918 -16.99731445 24.7565918 C-16.33731445 22.7765918 -15.67731445 20.7965918 -14.99731445 18.7565918 C-14.33731445 18.7565918 -13.67731445 18.7565918 -12.99731445 18.7565918 C-12.74981445 18.0965918 -12.50231445 17.4365918 -12.24731445 16.7565918 C-10.67914401 12.99298272 -8.85226399 9.38544939 -6.99731445 5.7565918 C-6.33731445 5.7565918 -5.67731445 5.7565918 -4.99731445 5.7565918 C-4.87356445 4.9522168 -4.74981445 4.1478418 -4.62231445 3.3190918 C-4.41606445 2.4734668 -4.20981445 1.6278418 -3.99731445 0.7565918 C-1.99731445 -0.2434082 -1.99731445 -0.2434082 0 0 Z " fill="#C48525" transform="translate(124.997314453125,55.243408203125)"/>
<path d="M0 0 C0.33 0 0.66 0 1 0 C1.144375 0.9075 1.28875 1.815 1.4375 2.75 C1.86409473 5.21476956 2.35074221 7.58847107 3 10 C2.34 10 1.68 10 1 10 C0.95230469 10.95261719 0.90460938 11.90523437 0.85546875 12.88671875 C0.08857974 18.21211384 -2.86162719 22.33791868 -5.6875 26.8125 C-6.20505859 27.65103516 -6.72261719 28.48957031 -7.25585938 29.35351562 C-8.29905281 31.04367086 -9.34835519 32.73007117 -10.40380859 34.41259766 C-12.58738296 37.95213897 -14.6544466 41.55779978 -16.71411133 45.1706543 C-17.13845459 45.77433838 -17.56279785 46.37802246 -18 47 C-18.66 47 -19.32 47 -20 47 C-20.59732819 44.23735711 -21 41.83967231 -21 39 C-21.66 39.99 -22.32 40.98 -23 42 C-23.66 42 -24.32 42 -25 42 C-25.103125 42.639375 -25.20625 43.27875 -25.3125 43.9375 C-25.539375 44.618125 -25.76625 45.29875 -26 46 C-27.485 46.495 -27.485 46.495 -29 47 C-29 47.66 -29 48.32 -29 49 C-29.66 48.67 -30.32 48.34 -31 48 C-17.04609665 22.91266313 -17.04609665 22.91266313 -10 18 C-9.34 18 -8.68 18 -8 18 C-7.87625 17.21625 -7.7525 16.4325 -7.625 15.625 C-7 13 -7 13 -5 11 C-3.96898053 8.68020619 -2.97063483 6.34570085 -2 4 C-1.34711373 2.65986503 -0.68774405 1.32258472 0 0 Z " fill="#F8F9F7" transform="translate(93,106)"/>
<path d="M0 0 C0.33 0 0.66 0 1 0 C1.33 10.23 1.66 20.46 2 31 C2.66 30.01 3.32 29.02 4 28 C4.66 28 5.32 28 6 28 C4.69822317 31.47987548 3.174551 34.54637435 1.20703125 37.6953125 C0.66248291 38.57082764 0.11793457 39.44634277 -0.44311523 40.34838867 C-1.30658569 41.72281128 -1.30658569 41.72281128 -2.1875 43.125 C-2.77539307 44.06770752 -3.36328613 45.01041504 -3.96899414 45.98168945 C-7.4488126 51.5539226 -10.96434956 57.10229969 -14.50390625 62.63671875 C-19.38718563 70.00467343 -19.38718563 70.00467343 -23 78 C-23.66 78 -24.32 78 -25 78 C-25.33 79.32 -25.66 80.64 -26 82 C-26.66 82 -27.32 82 -28 82 C-28.103125 82.53625 -28.20625 83.0725 -28.3125 83.625 C-29.18092697 86.62502044 -30.55620296 89.2379535 -32 92 C-32.66 92 -33.32 92 -34 92 C-34.33 93.65 -34.66 95.3 -35 97 C-36.24546405 94.50907189 -35.7767578 93.58919267 -35 91 C-34.34 91 -33.68 91 -33 91 C-32.855625 90.21625 -32.71125 89.4325 -32.5625 88.625 C-32 86 -32 86 -31 84 C-30.34 84 -29.68 84 -29 84 C-28.896875 83.278125 -28.79375 82.55625 -28.6875 81.8125 C-27.93206053 78.72206579 -26.84468685 76.58256159 -25 74 C-24.34 74 -23.68 74 -23 74 C-23 72.68 -23 71.36 -23 70 C-23.66 69.67 -24.32 69.34 -25 69 C-17.2436436 56.17275683 -9.31563294 43.47344941 -1 31 C-0.62967783 27.70229658 -0.62967783 27.70229658 -0.5859375 23.92578125 C-0.56657135 23.2419487 -0.5472052 22.55811615 -0.5272522 21.8535614 C-0.46756003 19.67333375 -0.42111369 17.49305298 -0.375 15.3125 C-0.33681057 13.8326595 -0.29775826 12.352841 -0.2578125 10.87304688 C-0.16186798 7.2488995 -0.07779849 3.62458743 0 0 Z " fill="#F7F2DC" transform="translate(66,52)"/>
<path d="M0 0 C0.61328125 1.8203125 0.61328125 1.8203125 1 4 C-0.28189588 6.03335209 -1.62156808 8.03081154 -3 10 C-3.33 11.093125 -3.66 12.18625 -4 13.3125 C-4.33 14.199375 -4.66 15.08625 -5 16 C-7.125 16.875 -7.125 16.875 -9 17 C-9 18.65 -9 20.3 -9 22 C-9.99 22 -10.98 22 -12 22 C-12.2475 22.86625 -12.495 23.7325 -12.75 24.625 C-13.83898161 27.56525036 -15.06063132 29.51325043 -16.859375 32.0234375 C-19.03475085 35.79309566 -20.31366782 39.98016395 -21.75390625 44.07421875 C-22.90419086 46.77504373 -23.67689067 48.25612748 -26 50 C-26.66 50 -27.32 50 -28 50 C-28.4640625 50.928125 -28.4640625 50.928125 -28.9375 51.875 C-29.625 53.25 -30.3125 54.625 -31 56 C-30.30237549 55.83250244 -29.60475098 55.66500488 -28.88598633 55.49243164 C-25.76312861 54.95958298 -22.98756248 54.98084698 -19.82421875 55.12109375 C-18.08881836 55.19360352 -18.08881836 55.19360352 -16.31835938 55.26757812 C-15.12017578 55.32365234 -13.92199219 55.37972656 -12.6875 55.4375 C-11.46998047 55.48970703 -10.25246094 55.54191406 -8.99804688 55.59570312 C-5.99842021 55.72509879 -2.99914994 55.86005448 0 56 C-0.05027344 55.23042969 -0.10054687 54.46085937 -0.15234375 53.66796875 C0.06981307 49.7773763 2.1960572 48.5303874 5 46 C5.495 45.01 5.495 45.01 6 44 C6.99 44.495 6.99 44.495 8 45 C7.23302204 46.41875765 6.46123222 47.83491452 5.6875 49.25 C5.25824219 50.03890625 4.82898437 50.8278125 4.38671875 51.640625 C3.92910156 52.41921875 3.47148438 53.1978125 3 54 C2.64035156 54.70060547 2.28070313 55.40121094 1.91015625 56.12304688 C-0.52682231 58.51766486 -2.34713345 58.45462185 -5.67619324 58.45318604 C-6.80134087 58.42221832 -6.80134087 58.42221832 -7.94921875 58.390625 C-8.72183548 58.38496521 -9.49445221 58.37930542 -10.29048157 58.37347412 C-12.75678629 58.35109327 -15.22163492 58.30089703 -17.6875 58.25 C-19.36000505 58.22993706 -21.03253289 58.21168592 -22.70507812 58.1953125 C-26.80394596 58.15122331 -30.90172617 58.08218675 -35 58 C-34.38305468 56.72194748 -33.76095309 55.44638325 -33.13671875 54.171875 C-32.79084717 53.4612793 -32.44497559 52.75068359 -32.08862305 52.01855469 C-30.69015317 49.42547351 -28.84395322 47.28904538 -27 45 C-26.22166466 42.81785432 -26.22166466 42.81785432 -26 41 C-25.34 41 -24.68 41 -24 41 C-23.566875 39.63875 -23.566875 39.63875 -23.125 38.25 C-22.23468224 35.67797092 -21.28505587 33.38653234 -20 31 C-19.34 31 -18.68 31 -18 31 C-17.67 29.68 -17.34 28.36 -17 27 C-16.34 27 -15.68 27 -15 27 C-14.87625 26.41992188 -14.7525 25.83984375 -14.625 25.2421875 C-12.10432746 16.19927476 -5.0941389 7.8021343 0 0 Z " fill="#D0AA57" transform="translate(58,103)"/>
<path d="M0 0 C67.32 0 134.64 0 204 0 C204 0.33 204 0.66 204 1 C202.96778698 1.00423194 201.93557396 1.00846388 200.87208176 1.01282406 C175.77663196 1.11593641 150.68121136 1.22467438 125.58581161 1.33933926 C113.44995847 1.39465914 101.31410238 1.44813914 89.17822266 1.49731445 C78.60278949 1.54017138 68.02737786 1.58645323 57.45197797 1.63687855 C51.85042578 1.66346729 46.24887782 1.68832012 40.64730072 1.70907402 C35.37788159 1.72865133 30.10850341 1.75279848 24.83912086 1.78049088 C22.90251471 1.78985549 20.96589956 1.79753289 19.02927971 1.80341911 C16.39005989 1.81169026 13.7509392 1.82596987 11.11175537 1.84178162 C9.95611151 1.84324878 9.95611151 1.84324878 8.77712131 1.84474558 C5.38283823 1.87098638 2.24462964 1.93488712 -1 3 C-0.67 2.01 -0.34 1.02 0 0 Z " fill="#1D1E1F" transform="translate(21,165)"/>
<path d="M0 0 C1.60031344 3.20062687 0.03173691 5.72271806 -1 9 C0.32 9 1.64 9 3 9 C3.73828125 10.578125 3.73828125 10.578125 4 13 C2.82043622 15.41155262 1.63819637 17.51627124 0.1875 19.75 C-0.18181641 20.35199219 -0.55113281 20.95398438 -0.93164062 21.57421875 C-1.89016178 23.09202066 -2.93906151 24.55193406 -4 26 C-4.66 26 -5.32 26 -6 26 C-6.59732819 23.23735711 -7 20.83967231 -7 18 C-7.66 18.99 -8.32 19.98 -9 21 C-9.66 21 -10.32 21 -11 21 C-11.1546875 21.9590625 -11.1546875 21.9590625 -11.3125 22.9375 C-11.539375 23.618125 -11.76625 24.29875 -12 25 C-12.99 25.33 -13.98 25.66 -15 26 C-15 26.66 -15 27.32 -15 28 C-15.66 27.67 -16.32 27.34 -17 27 C-4.46666667 4.46666667 -4.46666667 4.46666667 0 0 Z " fill="#F1F4F2" transform="translate(79,127)"/>
<path d="M0 0 C4.6732273 0.02228884 7.08019131 1.46883623 10.8125 4.3125 C11.8025 4.3125 12.7925 4.3125 13.8125 4.3125 C13.4825 5.3025 13.1525 6.2925 12.8125 7.3125 C12.1525 7.3125 11.4925 7.3125 10.8125 7.3125 C10.1525 8.9625 9.4925 10.6125 8.8125 12.3125 C-1.74558656 9.42183941 -1.74558656 9.42183941 -6.1875 6.3125 C-5.08352592 0.16178726 -5.08352592 0.16178726 0 0 Z " fill="#F4F4F4" transform="translate(208.1875,110.6875)"/>
<path d="M0 0 C12.03000164 -0.16631339 23.9895138 0.3475014 36 1 C35.67 1.66 35.34 2.32 35 3 C23.78 2.67 12.56 2.34 1 2 C1 3.98 1 5.96 1 8 C0.01 8.66 -0.98 9.32 -2 10 C-2 11.32 -2 12.64 -2 14 C-2.66 14 -3.32 14 -4 14 C-4 14.66 -4 15.32 -4 16 C-4.99 16.33 -5.98 16.66 -7 17 C-7.66 17.99 -8.32 18.98 -9 20 C-9.66 20 -10.32 20 -11 20 C-9.125 14.25 -9.125 14.25 -8 12 C-7.34 12 -6.68 12 -6 12 C-5.7525 11.319375 -5.505 10.63875 -5.25 9.9375 C-3.75802092 6.43134917 -1.93164489 3.28379632 0 0 Z " fill="#D0A75D" transform="translate(89,52)"/>
<path d="M0 0 C0 0.66 0 1.32 0 2 C3.06277267 1.85873374 6.12513542 1.71215604 9.1875 1.5625 C10.48397461 1.50352539 10.48397461 1.50352539 11.80664062 1.44335938 C15.97985914 1.23549792 19.90669373 0.8816352 24 0 C26.3125 0.4375 26.3125 0.4375 28 1 C28 1.66 28 2.32 28 3 C28.66 3 29.32 3 30 3 C29.67 3.99 29.34 4.98 29 6 C29 5.34 29 4.68 29 4 C28.16359985 4.00785522 28.16359985 4.00785522 27.31030273 4.01586914 C15.82151517 4.10910121 4.45138246 3.98506516 -7 3 C-7.28617187 3.74636719 -7.57234375 4.49273437 -7.8671875 5.26171875 C-9.29770415 8.71962279 -11.10373854 11.77635551 -13 15 C-14.2456406 11.2630782 -13.6963316 10.4734409 -12 7 C-10.25 3.75 -10.25 3.75 -8 1 C-5.17758157 0.20972284 -2.90411566 0 0 0 Z " fill="#FCF3DE" transform="translate(96,49)"/>
<path d="M0 0 C0.33 0 0.66 0 1 0 C1.33 5.28 1.66 10.56 2 16 C-1.63 16 -5.26 16 -9 16 C-8.06758496 14.08085447 -7.12885525 12.16477614 -6.1875 10.25 C-5.66542969 9.18265625 -5.14335938 8.1153125 -4.60546875 7.015625 C-3.23544947 4.44225545 -1.88029248 2.2197149 0 0 Z " fill="#F0F0F0" transform="translate(109,118)"/>
<path d="M0 0 C0 3 0 3 -5 11 C6.55 11 18.1 11 30 11 C30 11.66 30 12.32 30 13 C18.12 13 6.24 13 -6 13 C-6 13.99 -6 14.98 -6 16 C-7.98 16.99 -7.98 16.99 -10 18 C-10.625 16.125 -10.625 16.125 -11 14 C-10.34 13.34 -9.68 12.68 -9 12 C-8.67 12 -8.34 12 -8 12 C-7.34 9.36 -6.68 6.72 -6 4 C-4.68 3.67 -3.36 3.34 -2 3 C-2 2.34 -2 1.68 -2 1 C-1.34 0.67 -0.68 0.34 0 0 Z " fill="#F6EBC7" transform="translate(29,149)"/>
<path d="M0 0 C1 2 1 2 0.0625 5.125 C-0.4634375 6.548125 -0.4634375 6.548125 -1 8 C-1.66 8 -2.32 8 -3 8 C-3.0825 8.94875 -3.165 9.8975 -3.25 10.875 C-3.4975 11.90625 -3.745 12.9375 -4 14 C-5.31647119 14.69937532 -6.65022151 15.36729133 -8 16 C-8.81171228 18.55519921 -8.81171228 18.55519921 -9 21 C-9.66 21 -10.32 21 -11 21 C-11.1546875 21.9590625 -11.1546875 21.9590625 -11.3125 22.9375 C-11.539375 23.618125 -11.76625 24.29875 -12 25 C-12.99 25.33 -13.98 25.66 -15 26 C-15 26.66 -15 27.32 -15 28 C-15.66 27.67 -16.32 27.34 -17 27 C-4.46666667 4.46666667 -4.46666667 4.46666667 0 0 Z " fill="#FCF1D3" transform="translate(79,127)"/>
<path d="M0 0 C0.66 0 1.32 0 2 0 C-2.83533767 12.55413358 -10.77523262 23.7316765 -18 35 C-18.97918775 31.92443042 -19.1498998 31.31407577 -17.6875 28.25 C-17.130625 27.5075 -16.57375 26.765 -16 26 C-15.34 26 -14.68 26 -14 26 C-13.87625 25.236875 -13.7525 24.47375 -13.625 23.6875 C-13 21 -13 21 -11 18 C-10.34 18 -9.68 18 -9 18 C-8.67 16.35 -8.34 14.7 -8 13 C-7.34 13 -6.68 13 -6 13 C-5.67 11.02 -5.34 9.04 -5 7 C-4.34 7 -3.68 7 -3 7 C-2.690625 6.030625 -2.38125 5.06125 -2.0625 4.0625 C-1 1 -1 1 0 0 Z " fill="#D2AB4D" transform="translate(85,112)"/>
<path d="M0 0 C0.33 0 0.66 0 1 0 C1.33 10.23 1.66 20.46 2 31 C2.66 30.01 3.32 29.02 4 28 C4.66 28 5.32 28 6 28 C4.35821735 32.77609498 1.73453298 36.79382904 -1 41 C-2.32 39.68 -3.64 38.36 -5 37 C-4.35256836 36.16194824 -3.70513672 35.32389648 -3.03808594 34.46044922 C-0.66905084 30.89149119 -0.4616594 27.9303939 -0.390625 23.6328125 C-0.37408875 22.95322479 -0.35755249 22.27363708 -0.34051514 21.57345581 C-0.29231287 19.42387612 -0.27072872 17.27500219 -0.25 15.125 C-0.22181667 13.65881918 -0.19188595 12.19267085 -0.16015625 10.7265625 C-0.08656499 7.15119371 -0.03681974 3.57595827 0 0 Z " fill="#CFCCC1" transform="translate(66,52)"/>
<path d="M0 0 C0.66 1.32 1.32 2.64 2 4 C2.66 3.34 3.32 2.68 4 2 C4 5.19610552 3.45328458 6.41717626 2 9.1875 C1.62875 9.90292969 1.2575 10.61835937 0.875 11.35546875 C0.58625 11.89816406 0.2975 12.44085938 0 13 C-0.66 13 -1.32 13 -2 13 C-2.33 14.32 -2.66 15.64 -3 17 C-3.66 17 -4.32 17 -5 17 C-5.103125 17.53625 -5.20625 18.0725 -5.3125 18.625 C-6.18092697 21.62502044 -7.55620296 24.2379535 -9 27 C-9.66 27 -10.32 27 -11 27 C-11.33 28.65 -11.66 30.3 -12 32 C-13.24546405 29.50907189 -12.7767578 28.58919267 -12 26 C-11.34 26 -10.68 26 -10 26 C-9.855625 25.21625 -9.71125 24.4325 -9.5625 23.625 C-9 21 -9 21 -8 19 C-7.34 19 -6.68 19 -6 19 C-5.8453125 17.9171875 -5.8453125 17.9171875 -5.6875 16.8125 C-4.93206053 13.72206579 -3.84468685 11.58256159 -2 9 C-1.34 9 -0.68 9 0 9 C0 7.68 0 6.36 0 5 C-0.66 4.67 -1.32 4.34 -2 4 C-1.34 2.68 -0.68 1.36 0 0 Z " fill="#F7EED0" transform="translate(43,117)"/>
<path d="M0 0 C0.33 0.66 0.66 1.32 1 2 C-0.96639388 7.17472074 -3.48985753 12.07117774 -6 17 C-6.49306641 18.03833984 -6.49306641 18.03833984 -6.99609375 19.09765625 C-8.29302766 21.55527031 -9.91729602 23.17763402 -12 25 C-12.66 25 -13.32 25 -14 25 C-12.51752167 19.63443924 -9.98470914 15.43879916 -7 10.8125 C-6.32324219 9.74612305 -6.32324219 9.74612305 -5.6328125 8.65820312 C-3.78424888 5.75136418 -1.91093639 2.86640459 0 0 Z " fill="#F9ECD0" transform="translate(94,101)"/>
<path d="M0 0 C0.61328125 1.8203125 0.61328125 1.8203125 1 4 C-0.28189588 6.03335209 -1.62156808 8.03081154 -3 10 C-3.33 11.093125 -3.66 12.18625 -4 13.3125 C-4.33 14.199375 -4.66 15.08625 -5 16 C-7.125 16.875 -7.125 16.875 -9 17 C-9 18.65 -9 20.3 -9 22 C-9.99 22 -10.98 22 -12 22 C-12.268125 22.969375 -12.53625 23.93875 -12.8125 24.9375 C-13.4003125 26.4534375 -13.4003125 26.4534375 -14 28 C-14.99 28.33 -15.98 28.66 -17 29 C-17 28.34 -17 27.68 -17 27 C-16.34 27 -15.68 27 -15 27 C-14.87625 26.41992188 -14.7525 25.83984375 -14.625 25.2421875 C-12.10432746 16.19927476 -5.0941389 7.8021343 0 0 Z " fill="#D6AF5F" transform="translate(58,103)"/>
<path d="M0 0 C0.66 0.33 1.32 0.66 2 1 C1.20994338 2.43838552 0.41788955 3.87567415 -0.375 5.3125 C-0.81585938 6.11300781 -1.25671875 6.91351563 -1.7109375 7.73828125 C-2.73513335 9.53527943 -3.85267138 11.27900708 -5 13 C-7.55395487 13.26711404 -9.86274374 13.34849029 -12.4140625 13.29296875 C-13.14370209 13.28872391 -13.87334167 13.28447906 -14.62509155 13.28010559 C-16.95876759 13.26329353 -19.2915844 13.22563868 -21.625 13.1875 C-23.20571671 13.17245634 -24.78644693 13.15876738 -26.3671875 13.14648438 C-30.24512344 13.11338201 -34.12241598 13.06158404 -38 13 C-37.67 12.01 -37.34 11.02 -37 10 C-37 10.66 -37 11.32 -37 12 C-36.30237549 11.83250244 -35.60475098 11.66500488 -34.88598633 11.49243164 C-31.76312861 10.95958298 -28.98756248 10.98084698 -25.82421875 11.12109375 C-24.08881836 11.19360352 -24.08881836 11.19360352 -22.31835938 11.26757812 C-21.12017578 11.32365234 -19.92199219 11.37972656 -18.6875 11.4375 C-17.46998047 11.48970703 -16.25246094 11.54191406 -14.99804688 11.59570312 C-11.99842021 11.72509879 -8.99914994 11.86005448 -6 12 C-6.07541016 10.84564453 -6.07541016 10.84564453 -6.15234375 9.66796875 C-5.93018693 5.7773763 -3.8039428 4.5303874 -1 2 C-0.67 1.34 -0.34 0.68 0 0 Z " fill="#D9A136" transform="translate(64,147)"/>
<path d="M0 0 C0.33 0 0.66 0 1 0 C1 1.98 1 3.96 1 6 C-2.21903085 7.60951543 -5.74838832 7.24234748 -9.2890625 7.31640625 C-10.10748627 7.33718735 -10.92591003 7.35796844 -11.76913452 7.37937927 C-14.38766966 7.44484812 -17.00630639 7.50374726 -19.625 7.5625 C-21.39844807 7.60568776 -23.17188581 7.64930214 -24.9453125 7.69335938 C-29.29677046 7.80052676 -33.64833077 7.90180169 -38 8 C-38 7.34 -38 6.68 -38 6 C-26.12 6 -14.24 6 -2 6 C-1.67 4.35 -1.34 2.7 -1 1 C-0.67 0.67 -0.34 0.34 0 0 Z " fill="#FEFBE3" transform="translate(61,156)"/>
<path d="M0 0 C1 3 1 3 0.36328125 4.8671875 C-1.32945538 8.10163592 -2.92529043 10.9086883 -5.25 13.75 C-7.40929374 16.05116172 -7.40929374 16.05116172 -7 20 C-8.65 20.33 -10.3 20.66 -12 21 C-10.32508169 16.11963459 -7.63208039 12.00847052 -4.875 7.6875 C-4.40707031 6.94693359 -3.93914062 6.20636719 -3.45703125 5.44335938 C-2.30835804 3.62658032 -1.15467631 1.81296963 0 0 Z " fill="#D6AF57" transform="translate(71,82)"/>
<path d="M0 0 C1.65 1.65 3.3 3.3 5 5 C4.67 5.66 4.34 6.32 4 7 C3.01 6.34 2.02 5.68 1 5 C0.54109375 5.69867188 0.0821875 6.39734375 -0.390625 7.1171875 C-1.00421875 8.02726562 -1.6178125 8.93734375 -2.25 9.875 C-2.85328125 10.77992187 -3.4565625 11.68484375 -4.078125 12.6171875 C-5.96990937 14.96269251 -7.22728914 15.932629 -10 17 C-8.23576999 13.24868988 -6.06102752 9.76463789 -3.875 6.25 C-3.50246094 5.64800781 -3.12992187 5.04601562 -2.74609375 4.42578125 C-1.83225276 2.94957657 -0.91633402 1.47465846 0 0 Z " fill="#F8EBC4" transform="translate(106,82)"/>
<path d="M0 0 C0.598125 0.309375 1.19625 0.61875 1.8125 0.9375 C4.08956772 2.10209704 4.08956772 2.10209704 7 3 C4.69 6.96 2.38 10.92 0 15 C-0.33 13.68 -0.66 12.36 -1 11 C-0.34 11 0.32 11 1 11 C0.34 10.01 -0.32 9.02 -1 8 C-1.1875 4.375 -1.1875 4.375 -1 1 C-0.67 0.67 -0.34 0.34 0 0 Z " fill="#F1F0F0" transform="translate(95,105)"/>
<path d="M0 0 C0.99 0 1.98 0 3 0 C3 0.99 3 1.98 3 3 C3.99 3.33 4.98 3.66 6 4 C4.85865673 6.00256574 3.71181367 8.00199797 2.5625 10 C1.60537109 11.670625 1.60537109 11.670625 0.62890625 13.375 C0.09136719 14.24125 -0.44617188 15.1075 -1 16 C-1.33 16 -1.66 16 -2 16 C-2.1953125 9.9453125 -2.1953125 9.9453125 -2 8 C-1.34 7.34 -0.68 6.68 0 6 C0.16681109 2.91652174 0.16681109 2.91652174 0 0 Z " fill="#FDF7E5" transform="translate(74,64)"/>
<path d="M0 0 C0.33 0.66 0.66 1.32 1 2 C0.5565625 2.52464844 0.113125 3.04929688 -0.34375 3.58984375 C-2.95903224 7.39557286 -4.1853368 11.67397987 -5.71875 16.00390625 C-6.88538419 18.73198071 -7.73925294 20.1532851 -10 22 C-10.66 21.67 -11.32 21.34 -12 21 C-11.195625 19.989375 -10.39125 18.97875 -9.5625 17.9375 C-6.97016852 14.34027599 -6.41834285 11.43443421 -6 7 C-4.9375 4.5625 -4.9375 4.5625 -4 3 C-3.34 3 -2.68 3 -2 3 C-2 2.34 -2 1.68 -2 1 C-1.34 0.67 -0.68 0.34 0 0 Z " fill="#DBA947" transform="translate(42,131)"/>
<path d="M0 0 C0.66 0 1.32 0 2 0 C1 3 1 3 -1 4 C-1 5.32 -1 6.64 -1 8 C-1.66 8 -2.32 8 -3 8 C-3 8.66 -3 9.32 -3 10 C-3.99 10.33 -4.98 10.66 -6 11 C-6.99 12.485 -6.99 12.485 -8 14 C-8.66 14 -9.32 14 -10 14 C-8.125 8.25 -8.125 8.25 -7 6 C-6.34 6 -5.68 6 -5 6 C-5 5.34 -5 4.68 -5 4 C-3.35 3.34 -1.7 2.68 0 2 C0 1.34 0 0.68 0 0 Z " fill="#D8A637" transform="translate(88,58)"/>
<path d="M0 0 C1 3 1 3 0.00390625 5.04296875 C-0.47175781 5.75066406 -0.94742188 6.45835938 -1.4375 7.1875 C-1.91058594 7.90292969 -2.38367187 8.61835937 -2.87109375 9.35546875 C-3.42990234 10.16951172 -3.42990234 10.16951172 -4 11 C-5.65 10.67 -7.3 10.34 -9 10 C-8.34 9.67 -7.68 9.34 -7 9 C-6.87625 8.05125 -6.7525 7.1025 -6.625 6.125 C-6 3 -6 3 -4.0625 1.125 C-2 0 -2 0 0 0 Z " fill="#110F12" transform="translate(55,96)"/>
<path d="M0 0 C0.66 0.66 1.32 1.32 2 2 C1.60246179 3.46366342 1.18118616 4.9208935 0.75 6.375 C0.51796875 7.18710938 0.2859375 7.99921875 0.046875 8.8359375 C-1.2214892 11.45785454 -2.32423308 11.99382318 -5 13 C-5.33 12.34 -5.66 11.68 -6 11 C-4.45884606 6.83888437 -2.87385045 3.42125054 0 0 Z " fill="#F4F5F2" transform="translate(49,109)"/>
<path d="M0 0 C2.99999941 2.63076871 4.72382055 5.74179832 6.6875 9.1875 C7.31011719 10.27417969 7.93273437 11.36085938 8.57421875 12.48046875 C9.04472656 13.31191406 9.51523438 14.14335938 10 15 C9.01 15 8.02 15 7 15 C5.5807103 13.00676556 4.51733974 10.91415079 3.37890625 8.75 C2.92386719 8.1725 2.46882813 7.595 2 7 C0.68 7 -0.64 7 -2 7 C-1.67 6.21625 -1.34 5.4325 -1 4.625 C0.11866511 2.15667503 0.11866511 2.15667503 0 0 Z " fill="#BF944E" transform="translate(125,55)"/>
<path d="M0 0 C1.32 0.33 2.64 0.66 4 1 C4 1.66 4 2.32 4 3 C4.66 3 5.32 3 6 3 C6.33 4.65 6.66 6.3 7 8 C7.66 8 8.32 8 9 8 C9 9.98 9 11.96 9 14 C5.25876024 9.7045025 2.65848126 5.00099548 0 0 Z " fill="#F9EFD8" transform="translate(136,72)"/>
<path d="M0 0 C2.97 0.495 2.97 0.495 6 1 C5.67 2.98 5.34 4.96 5 7 C3 7 1 7 -1 7 C-0.67 4.69 -0.34 2.38 0 0 Z " fill="#EBEBEB" transform="translate(185,104)"/>
<path d="M0 0 C1.37194501 0.03313877 2.74345655 0.0926453 4.11328125 0.17578125 C4.81517578 0.19833984 5.51707031 0.22089844 6.24023438 0.24414062 C7.96966455 0.30296478 9.69799563 0.39264736 11.42578125 0.48828125 C11.42578125 0.81828125 11.42578125 1.14828125 11.42578125 1.48828125 C6.80578125 1.48828125 2.18578125 1.48828125 -2.57421875 1.48828125 C-2.57421875 3.13828125 -2.57421875 4.78828125 -2.57421875 6.48828125 C-3.23421875 6.48828125 -3.89421875 6.48828125 -4.57421875 6.48828125 C-4.57421875 7.14828125 -4.57421875 7.80828125 -4.57421875 8.48828125 C-6.55421875 9.47828125 -6.55421875 9.47828125 -8.57421875 10.48828125 C-7.9492048 8.80555139 -7.27244492 7.14197482 -6.57421875 5.48828125 C-6.21328125 4.61171875 -5.85234375 3.73515625 -5.48046875 2.83203125 C-3.57421875 0.48828125 -3.57421875 0.48828125 0 0 Z " fill="#D8B06B" transform="translate(92.57421875,51.51171875)"/>
<path d="M0 0 C2.36841312 1.57894208 4.06745228 2.9754262 6 5 C5.01 6.485 5.01 6.485 4 8 C0.62496331 6.8141763 -1.64722731 5.72426311 -4 3 C-2.68 2.67 -1.36 2.34 0 2 C0 1.34 0 0.68 0 0 Z " fill="#EDEDED" transform="translate(193,136)"/>
<path d="M0 0 C0.66 0.33 1.32 0.66 2 1 C1.278125 1.969375 0.55625 2.93875 -0.1875 3.9375 C-3.16666884 8.09131255 -5.59890295 12.4941115 -8 17 C-8.33 16.01 -8.66 15.02 -9 14 C-7.72873316 11.58897668 -6.42429489 9.3125083 -5 7 C-4.3197633 5.67353844 -3.64507739 4.34391123 -3 3 C-2.34 3 -1.68 3 -1 3 C-0.67 2.01 -0.34 1.02 0 0 Z " fill="#D0AA4F" transform="translate(100,89)"/>
<path d="M0 0 C0.33 0.66 0.66 1.32 1 2 C-0.38542316 5.62848922 -1.84351662 8.76527494 -4 12 C-4.66 12 -5.32 12 -6 12 C-6 12.99 -6 13.98 -6 15 C-6.66 15 -7.32 15 -8 15 C-6.62712658 11.30123909 -4.93644547 8.0485524 -2.875 4.6875 C-2.33617188 3.80449219 -1.79734375 2.92148438 -1.2421875 2.01171875 C-0.83226563 1.34785156 -0.42234375 0.68398437 0 0 Z " fill="#F4E6BA" transform="translate(94,101)"/>
<path d="M0 0 C0.75 1.75 0.75 1.75 1 4 C-0.75 6.25 -0.75 6.25 -3 8 C-3.99 8 -4.98 8 -6 8 C-5.65120368 4.74456771 -4.97866739 3.98126893 -2.4375 1.75 C-1.633125 1.1725 -0.82875 0.595 0 0 Z " fill="#FBFBEA" transform="translate(101,95)"/>
<path d="M0 0 C0.99 0.33 1.98 0.66 3 1 C3.25 3.3125 3.25 3.3125 3 6 C0.62130509 8.65315971 -0.67124653 8.98103345 -4.25 9.1875 C-5.1575 9.125625 -6.065 9.06375 -7 9 C-6.4225 8.7525 -5.845 8.505 -5.25 8.25 C-2.6997003 6.83316683 -0.98214299 5.12372463 1 3 C0.67 2.01 0.34 1.02 0 0 Z " fill="#D8D8D8" transform="translate(205,136)"/>
<path d="M0 0 C0.66 0.66 1.32 1.32 2 2 C-0.625 8.75 -0.625 8.75 -4 11 C-5 8 -5 8 -4.00390625 5.95703125 C-3.52824219 5.24933594 -3.05257812 4.54164062 -2.5625 3.8125 C-2.08941406 3.09707031 -1.61632812 2.38164063 -1.12890625 1.64453125 C-0.75636719 1.10183594 -0.38382812 0.55914062 0 0 Z " fill="#131016" transform="translate(96,117)"/>
<path d="M0 0 C0.99 0 1.98 0 3 0 C3 1.32 3 2.64 3 4 C3.99 4 4.98 4 6 4 C6.66 6.31 7.32 8.62 8 11 C7.01 11.495 7.01 11.495 6 12 C4.02 8.04 2.04 4.08 0 0 Z " fill="#FBF1D6" transform="translate(126,55)"/>
<path d="M0 0 C3.25524265 3.02272532 5.61820737 6.25718301 8 10 C7.67 10.66 7.34 11.32 7 12 C4.625 11.0625 4.625 11.0625 2 9 C0.95977199 6.0518161 0.43412264 3.09069405 0 0 Z " fill="#BB944C" transform="translate(135,72)"/>
<path d="M0 0 C0.33 0 0.66 0 1 0 C1.125 5.75 1.125 5.75 0 8 C-0.99 8 -1.98 8 -3 8 C-3 8.66 -3 9.32 -3 10 C-3.66 10 -4.32 10 -5 10 C-3.85017555 6.10828647 -2.70784225 3.06103907 0 0 Z " fill="#D6AE52" transform="translate(77,72)"/>
<path d="M0 0 C0.99 0.33 1.98 0.66 3 1 C2.67 2.98 2.34 4.96 2 7 C0.35 7.33 -1.3 7.66 -3 8 C-1.125 2.25 -1.125 2.25 0 0 Z " fill="#111112" transform="translate(19,168)"/>
<path d="M0 0 C0.66 0 1.32 0 2 0 C2 1.98 2 3.96 2 6 C0.02 6.99 0.02 6.99 -2 8 C-2.125 5.125 -2.125 5.125 -2 2 C-1.34 1.34 -0.68 0.68 0 0 Z " fill="#F6F6F4" transform="translate(56,98)"/>
<path d="M0 0 C0.66 0.33 1.32 0.66 2 1 C1.21516341 2.48280196 0.42190666 3.9611498 -0.375 5.4375 C-0.81585938 6.26121094 -1.25671875 7.08492187 -1.7109375 7.93359375 C-3 10 -3 10 -5 11 C-4.46884894 6.48521602 -2.63379708 3.65333143 0 0 Z " fill="#D2AC59" transform="translate(64,147)"/>
<path d="M0 0 C1 2 1 2 0.3125 5.0625 C-1 8 -1 8 -3.125 8.875 C-3.74375 8.91625 -4.3625 8.9575 -5 9 C-3.7508258 5.54074837 -2.32472205 2.85306797 0 0 Z " fill="#FAF0CA" transform="translate(79,127)"/>
<path d="M0 0 C1.65 0.33 3.3 0.66 5 1 C3.55802132 3.88395737 1.29355765 5.76525152 -1 8 C-1.125 2.25 -1.125 2.25 0 0 Z " fill="#D4A741" transform="translate(103,80)"/>
<path d="M0 0 C1.20628008 2.33214148 2.1654738 4.49642139 3 7 C2.67 7.66 2.34 8.32 2 9 C1.34 9 0.68 9 0 9 C-0.66 7.35 -1.32 5.7 -2 4 C-1.34 4 -0.68 4 0 4 C0 2.68 0 1.36 0 0 Z " fill="#EEF5EB" transform="translate(90,116)"/>
<path d="M0 0 C0 4.24645065 -1.81750806 6.38524772 -4 10 C-5 7 -5 7 -4.25 4.4375 C-3 2 -3 2 0 0 Z " fill="#FDEDCD" transform="translate(87,54)"/>
<path d="M0 0 C0.33 0 0.66 0 1 0 C1 1.98 1 3.96 1 6 C-0.98 6.33 -2.96 6.66 -5 7 C-4.01 6.67 -3.02 6.34 -2 6 C-1.855625 5.195625 -1.71125 4.39125 -1.5625 3.5625 C-1 1 -1 1 0 0 Z " fill="#FDF3D8" transform="translate(61,156)"/>
<path d="M0 0 C0.33 0.99 0.66 1.98 1 3 C3.01508358 3.73323796 3.01508358 3.73323796 5 4 C5 5.32 5 6.64 5 8 C3.0625 7.375 3.0625 7.375 1 6 C0.25 2.875 0.25 2.875 0 0 Z " fill="#BB8836" transform="translate(139,80)"/>
<path d="M0 0 C0.66 0.66 1.32 1.32 2 2 C-0.64 3.98 -3.28 5.96 -6 8 C-4.73058503 4.08597051 -3.48832306 2.20927127 0 0 Z " fill="#262626" transform="translate(197,101)"/>
<path d="M0 0 C0.99 0.33 1.98 0.66 3 1 C2.67 2.65 2.34 4.3 2 6 C1.01 6 0.02 6 -1 6 C-1.042721 4.33388095 -1.04063832 2.66617115 -1 1 C-0.67 0.67 -0.34 0.34 0 0 Z " fill="#E6A314" transform="translate(88,99)"/>
<path d="M0 0 C0.66 0 1.32 0 2 0 C1.1875 3.4375 1.1875 3.4375 0 7 C-0.99 7.33 -1.98 7.66 -3 8 C-1.125 2.25 -1.125 2.25 0 0 Z " fill="#DDB968" transform="translate(81,64)"/>
<path d="M0 0 C0.66 0 1.32 0 2 0 C1.67 1.32 1.34 2.64 1 4 C0.34 4 -0.32 4 -1 4 C-1.33 4.99 -1.66 5.98 -2 7 C-2.66 6.67 -3.32 6.34 -4 6 C-2.7260411 3.96166576 -1.38938077 1.96147874 0 0 Z " fill="#141415" transform="translate(76,150)"/>
<path d="M0 0 C0.99 0 1.98 0 3 0 C2.67 1.65 2.34 3.3 2 5 C0.68 5.33 -0.64 5.66 -2 6 C-1.34 4.02 -0.68 2.04 0 0 Z " fill="#D2A84D" transform="translate(51,114)"/>
<path d="M0 0 C0.66 1.32 1.32 2.64 2 4 C1.01 4.99 0.02 5.98 -1 7 C-1.66 6.34 -2.32 5.68 -3 5 C-2.01 3.35 -1.02 1.7 0 0 Z " fill="#E6E7E0" transform="translate(59,92)"/>
<path d="M0 0 C0.33 1.65 0.66 3.3 1 5 C0.67 4.34 0.34 3.68 0 3 C-0.66 3 -1.32 3 -2 3 C-2 3.66 -2 4.32 -2 5 C-2.66 5 -3.32 5 -4 5 C-4 3.68 -4 2.36 -4 1 C-2 0 -2 0 0 0 Z " fill="#BD891B" transform="translate(125,55)"/>
</svg>
